Coordinates
version=1
nRows=17
nColumns=38
inDegrees=no

Units are S.I. units (second, meters, Newtons, ...)
If the header above contains a line with 'inDegrees', this indicates whether rotational values are in degrees (yes) or radians (no).

endheader
time	pelvis_tilt	pelvis_list	pelvis_rotation	pelvis_tx	pelvis_ty	pelvis_tz	hip_flexion_r	hip_adduction_r	hip_rotation_r	knee_angle_r	ankle_angle_r	subtalar_angle_r	mtp_angle_r	hip_flexion_l	hip_adduction_l	hip_rotation_l	knee_angle_l	ankle_angle_l	subtalar_angle_l	mtp_angle_l	lumbar_extension	lumbar_bending	lumbar_rotation	arm_flex_r	arm_add_r	arm_rot_r	elbow_flex_r	pro_sup_r	wrist_flex_r	wrist_dev_r	arm_flex_l	arm_add_l	arm_rot_l	elbow_flex_l	pro_sup_l	wrist_flex_l	wrist_dev_l
1.83	0.137033	1.44413	1.43256	0.715391	-0.354226	1.02547	0.120055	-0.0463243	-0.200192	0.459443	-0.0973596	0	0	0.0634713	-0.125869	-0.235716	0.313131	-0.301481	0	0	0.107864	-0.0690437	0.114818	0.379519	-0.528807	0.602589	1.4775	1.5708	0	0	0.499061	-0.277737	0.7868	1.32275	1.5708	0	0
1.84	0.128102	1.44343	1.43957	0.713771	-0.353233	1.02532	0.121078	-0.0493792	-0.199626	0.460609	-0.0976453	0	0	0.062564	-0.122852	-0.236556	0.312605	-0.300194	0	0	0.107618	-0.0704295	0.114629	0.38919	-0.530329	0.608713	1.46926	1.5708	0	0	0.509004	-0.275013	0.7943	1.31373	1.5708	0	0
1.85	0.118777	1.44253	1.44698	0.712103	-0.352216	1.02515	0.122416	-0.0523794	-0.19892	0.462279	-0.097847	0	0	0.0618091	-0.119747	-0.237597	0.311883	-0.299146	0	0	0.1076	-0.0718767	0.114545	0.398506	-0.531611	0.61421	1.4609	1.5708	0	0	0.519442	-0.272186	0.802548	1.30428	1.5708	0	0
1.86	0.109822	1.44151	1.45364	0.710418	-0.351208	1.02497	0.124417	-0.0554887	-0.19707	0.464698	-0.0982492	0	0	0.0611902	-0.116743	-0.239061	0.311313	-0.298195	0	0	0.107526	-0.0733053	0.114812	0.407629	-0.532434	0.619009	1.45219	1.5708	0	0	0.529678	-0.269154	0.810402	1.29483	1.5708	0	0
1.87	0.100342	1.44038	1.46081	0.708725	-0.350177	1.02476	0.126541	-0.0586081	-0.194415	0.467264	-0.098548	0	0	0.0605818	-0.113659	-0.240452	0.310558	-0.29727	0	0	0.107437	-0.0749262	0.115167	0.416742	-0.533148	0.623776	1.44337	1.5708	0	0	0.539626	-0.266094	0.81793	1.28557	1.5708	0	0
1.88	0.0894341	1.43957	1.47004	0.706941	-0.349176	1.02458	0.128228	-0.0621084	-0.192055	0.469838	-0.0986519	0	0	0.0597376	-0.110114	-0.240897	0.309512	-0.296423	0	0	0.106668	-0.0768509	0.115076	0.426132	-0.53395	0.628529	1.43459	1.5708	0	0	0.550322	-0.262896	0.826143	1.27594	1.5708	0	0
1.89	0.0776532	1.43893	1.48065	0.705047	-0.348245	1.02442	0.129842	-0.0659821	-0.189382	0.472935	-0.0986088	0	0	0.0589717	-0.106273	-0.240637	0.308711	-0.295695	0	0	0.105276	-0.078896	0.114665	0.435793	-0.534972	0.633064	1.42601	1.5708	0	0	0.561917	-0.259058	0.834965	1.26565	1.5708	0	0
1.9	0.0659994	1.43818	1.49102	0.703132	-0.347312	1.02424	0.132038	-0.0697118	-0.186551	0.476763	-0.0984998	0	0	0.0582413	-0.102559	-0.241013	0.307842	-0.295052	0	0	0.103848	-0.0809637	0.114447	0.445369	-0.536025	0.637267	1.41756	1.5708	0	0	0.573936	-0.254829	0.844145	1.25507	1.5708	0	0
1.91	0.0544035	1.43745	1.50133	0.701175	-0.346378	1.02405	0.134664	-0.0733534	-0.184034	0.481195	-0.0982631	0	0	0.0573903	-0.0988681	-0.241683	0.306902	-0.294211	0	0	0.102074	-0.0830986	0.113968	0.455337	-0.536979	0.641747	1.40905	1.5708	0	0	0.585486	-0.250482	0.852288	1.24484	1.5708	0	0
1.92	0.0416464	1.43682	1.51305	0.699171	-0.345435	1.02383	0.137429	-0.0771822	-0.181727	0.485995	-0.0978084	0	0	0.0563808	-0.0949042	-0.242111	0.306059	-0.293122	0	0	0.1001	-0.0855328	0.113336	0.465304	-0.537929	0.64615	1.40047	1.5708	0	0	0.597313	-0.246486	0.860827	1.23489	1.5708	0	0
1.93	0.0278728	1.43627	1.52602	0.697125	-0.344469	1.02359	0.140038	-0.0813585	-0.17867	0.490697	-0.0974125	0	0	0.0553242	-0.0907511	-0.242483	0.305241	-0.292131	0	0	0.0980376	-0.088284	0.112445	0.475285	-0.538791	0.650691	1.39176	1.5708	0	0	0.609253	-0.242905	0.869661	1.22529	1.5708	0	0
1.94	0.0133961	1.43585	1.54002	0.695021	-0.343501	1.02334	0.142729	-0.0856315	-0.175332	0.496112	-0.096852	0	0	0.0543735	-0.0865377	-0.242978	0.304692	-0.291243	0	0	0.0956107	-0.0913899	0.110886	0.485789	-0.539441	0.655832	1.38279	1.5708	0	0	0.620999	-0.239568	0.878361	1.21576	1.5708	0	0
1.95	-0.00245122	1.43541	1.5556	0.692882	-0.342541	1.02304	0.14607	-0.0903867	-0.170895	0.503591	-0.0961012	0	0	0.0534718	-0.0821713	-0.243613	0.304081	-0.290432	0	0	0.0930765	-0.0949003	0.109141	0.496355	-0.540079	0.660982	1.37387	1.5708	0	0	0.632822	-0.235295	0.886952	1.20535	1.5708	0	0
1.96	-0.0188134	1.43473	1.57165	0.690736	-0.341584	1.0227	0.149853	-0.0950215	-0.165176	0.511542	-0.0951835	0	0	0.0526585	-0.0776697	-0.24429	0.30309	-0.289626	0	0	0.0905926	-0.0986428	0.107404	0.506798	-0.540652	0.665854	1.36506	1.5708	0	0	0.644595	-0.231116	0.895516	1.19544	1.5708	0	0
1.97	-0.0356235	1.43401	1.58809	0.688546	-0.34064	1.02237	0.153932	-0.0997422	-0.160689	0.519645	-0.0943018	0	0	0.0517066	-0.0730037	-0.245055	0.301573	-0.289212	0	0	0.0880404	-0.102406	0.105748	0.517409	-0.541247	0.670946	1.35599	1.5708	0	0	0.656462	-0.226936	0.904254	1.1855	1.5708	0	0
1.98	-0.053489	1.43346	1.60562	0.686288	-0.339753	1.0221	0.158827	-0.104981	-0.156376	0.529288	-0.0938832	0	0	0.0505692	-0.0680536	-0.2455	0.299903	-0.289182	0	0	0.0850799	-0.106221	0.104021	0.528685	-0.542043	0.67685	1.34668	1.5708	0	0	0.6686	-0.222475	0.913077	1.17502	1.5708	0	0
1.99	-0.0733296	1.43279	1.62485	0.684029	-0.338877	1.02179	0.164161	-0.109973	-0.148982	0.539776	-0.0930158	0	0	0.0492893	-0.0627836	-0.246067	0.298043	-0.289181	0	0	0.0821703	-0.110329	0.102464	0.540437	-0.542897	0.683505	1.33726	1.5708	0	0	0.680694	-0.218053	0.921688	1.1645	1.5708	0	0
